<svg id="Слой_1" xmlns="http://www.w3.org/2000/svg" viewBox="0 0 570 200"><style>.st0{fill:#abb1aa}.st1{fill:#fff}</style><path class="st0" d="M560 197.5H10a7.5 7.5 0 0 1-7.5-7.5V10c0-4.2 3.4-7.5 7.5-7.5h550c4.2 0 7.5 3.4 7.5 7.5v180c0 4.1-3.4 7.5-7.5 7.5z"/><path d="M560 0H10A10 10 0 0 0 0 10v180a10 10 0 0 0 10 10h550a10 10 0 0 0 10-10V10a10 10 0 0 0-10-10zM10 6h550a4 4 0 0 1 4 4v130H6V10a4 4 0 0 1 4-4z"/><circle class="st0" cx="98" cy="93" r="86.5"/><path class="st1" d="M290.8 167.2c3.3-1.6 5-3.9 5-6.7 0-2.9-1.2-5.2-3.5-6.7a16.6 16.6 0 0 0-9.6-2.4l-11.2.3v35.5h12.1c4.3 0 7.8-.9 10.5-2.8s4.1-4.5 4.1-7.7c-.1-4.8-2.5-7.9-7.4-9.5zm-12.3-10.4l4-.1c4.1 0 6.2 1.4 6.2 4.1 0 3.1-2.3 4.6-6.8 4.6l-3.4-.1v-8.5zm10.2 23.9c-1.4 1-3.7 1.4-6.8 1.4l-3.4-.2v-11.7l3.5-.1c3.3 0 5.6.5 6.9 1.4 1.3.9 2 2.4 2 4.4-.1 2.3-.8 3.9-2.2 4.8zm35.4-28.9l-9.4 15.1-9.3-15.1h-7.5l13.3 20.9v14.6h7v-14.6l13.3-20.9zm103 21.2l-18.3-21h-3.3v34.8h6.6v-21.6l18.8 22.1h2.8V152h-6.6zm38.2 5.4a11 11 0 0 1-8.6 3.5 9.5 9.5 0 0 1-7.6-3.3c-1.9-2.2-2.9-5.1-2.9-8.9s1-6.8 3.1-9.2a10 10 0 0 1 7.9-3.6c3.4 0 5.9.7 7.4 2.1l2.8-5.1a20.5 20.5 0 0 0-10.6-2.4c-5.2 0-9.4 1.7-12.7 5.2-3.3 3.5-5 7.8-5 12.9 0 5.5 1.5 9.9 4.5 13.1 3 3.2 7.2 4.8 12.6 4.8s9.5-1.3 12.3-4l-3.2-5.1z"/><circle class="st1" cx="300" cy="70.6" r="50"/><path d="M300 25.6a45 45 0 1 1-.1 90.1 45 45 0 0 1 .1-90.1m0-10a55 55 0 1 0 0 110 55 55 0 0 0 0-110z"/><circle cx="300" cy="43" r="7.9"/><path d="M313.2 57.9c0-.8.1-2.3-1.1-3.5-1.1-1.1-2.7-1.1-3.5-1.1h-17.3c-.8 0-2.3-.1-3.5 1.1-1.1 1.1-1.1 2.7-1.1 3.5v21.9h5v26.4h16.4V79.8h5l.1-21.9z"/><circle cx="98" cy="93" r="68.5" fill="#fff" stroke="#000" stroke-width="14" stroke-miterlimit="10"/><path d="M78.8 106.3c-6.9 0-10.1-5.7-10.1-13.3 0-7.6 2.7-13.3 10.1-13.3 2 0 6 1.1 8.3 6.1l10-5.2c-4.2-7.7-11.5-10.8-19.9-10.8-12.2 0-22 8.6-22 23.3 0 14.9 9.2 23.3 22.4 23.3 8.5 0 15.7-4.7 19.7-11.7L88 100c-2 4.8-5.2 6.3-9.2 6.3zm52.6-6.5c-2.1 5-5.2 6.5-9.2 6.5-6.9 0-10.1-5.7-10.1-13.3 0-7.6 2.7-13.3 10.1-13.3 2 0 6 1.1 8.3 6.1l10-5.2c-4.2-7.7-11.5-10.8-19.9-10.8-12.2 0-22 8.6-22 23.3 0 14.9 9.2 23.3 22.4 23.3 8.5 0 15.7-4.7 19.7-11.7l-9.3-4.9z"/><circle class="st1" cx="437" cy="70.6" r="50"/><path d="M437 25.6a45 45 0 1 1-.1 90.1 45 45 0 0 1 .1-90.1m0-10a55 55 0 1 0 0 110 55 55 0 0 0 0-110z"/><path d="M487 86.6l-4.5 9.9-95.5-43 4.5-9.9 95.5 43z"/><path d="M425.3 81.8c3.5 5 14.4 5.3 18.1 3.2 1.4-.8 1.7-3 1.7-4.5a4 4 0 0 0-.8-2.5c-.6-.6-2-2.1-3.7-2.5-8.6-2.2-14.6-5-16.9-7-2.9-2.5-3.4-4.2-3.4-8.6s1.3-8.1 4.1-10.7c2.9-2.6 7-4 12.4-4 5.2 0 12.5 1.4 16.1 5.6l-5.9 6.5c-3.4-2.8-5.8-3.1-9.9-3.1-2.6 0-3.9.4-5 1.1a3.1 3.1 0 0 0-1.6 2.8c0 1 .5 1.9 1.5 2.6 1 .7 3.6 1.8 8.8 3.2 5.9 1.6 9.8 3.5 11.9 5.8 2.1 2.3 3.1 5.3 3.1 9.1 0 4.6-1.6 8.3-4.8 11.3-3.2 3-7.1 5.3-12.8 5.3-7.3 0-17-2.6-19.7-7.3"/><path d="M433.4 36.5v12h5.2v-12h-5.2zm0 56.7v10.3h5.2V93.2h-5.2z"/></svg>